<?xml version="1.0" encoding="UTF-8" standalone="no"?>
<!-- Created with Inkscape (http://www.inkscape.org/) -->

<svg
   width="740"
   height="128"
   viewBox="0 0 740 128"
   version="1.1"
   id="svg5"
   sodipodi:docname="banner.svg"
   inkscape:version="1.2.2 (b0a8486541, 2022-12-01)"
   inkscape:export-filename="test.svg"
   inkscape:export-xdpi="72"
   inkscape:export-ydpi="72"
   xmlns:inkscape="http://www.inkscape.org/namespaces/inkscape"
   xmlns:sodipodi="http://sodipodi.sourceforge.net/DTD/sodipodi-0.dtd"
   xmlns:xlink="http://www.w3.org/1999/xlink"
   xmlns="http://www.w3.org/2000/svg"
   xmlns:svg="http://www.w3.org/2000/svg"
   xmlns:rdf="http://www.w3.org/1999/02/22-rdf-syntax-ns#"
   xmlns:cc="http://creativecommons.org/ns#">
  <sodipodi:namedview
     id="namedview7"
     pagecolor="#1e1e1e"
     bordercolor="#000000"
     borderopacity="0.25"
     inkscape:showpageshadow="2"
     inkscape:pageopacity="0"
     inkscape:pagecheckerboard="0"
     inkscape:deskcolor="#d1d1d1"
     inkscape:document-units="px"
     showgrid="true"
     inkscape:lockguides="false"
     inkscape:zoom="2"
     inkscape:cx="587.5"
     inkscape:cy="106.5"
     inkscape:window-width="1920"
     inkscape:window-height="1011"
     inkscape:window-x="0"
     inkscape:window-y="32"
     inkscape:window-maximized="1"
     inkscape:current-layer="layer1">
    <inkscape:grid
       type="xygrid"
       id="grid6350"
       originx="1.7763568e-15"
       originy="1.7763568e-15"
       dotted="false"
       visible="false"
       enabled="true"
       color="#e50000"
       opacity="0.14901961"
       empcolor="#e50000"
       empopacity="0.30196078" />
    <sodipodi:guide
       position="1.7763568e-15,128"
       orientation="0,120"
       id="guide8832"
       inkscape:locked="false" />
    <sodipodi:guide
       position="128,127"
       orientation="120,0"
       id="guide8834"
       inkscape:locked="false" />
    <sodipodi:guide
       position="121,0"
       orientation="0,-120"
       id="guide8836"
       inkscape:locked="false" />
    <sodipodi:guide
       position="1.7763568e-15,8"
       orientation="-120,0"
       id="guide8838"
       inkscape:locked="false" />
  </sodipodi:namedview>
  <defs
     id="defs2">
    <inkscape:path-effect
       effect="fillet_chamfer"
       id="path-effect946"
       is_visible="true"
       lpeversion="1"
       nodesatellites_param="F,0,0,1,0,2,0,1 @ F,0,0,1,0,0,0,1 @ F,0,0,1,0,0,0,1 @ F,0,0,1,0,0,0,1 @ F,0,0,1,0,0,0,1 @ F,0,0,1,0,0,0,1 @ F,0,0,1,0,0,0,1 @ F,0,0,1,0,0,0,1 @ F,0,0,1,0,2,0,1"
       unit="px"
       method="auto"
       mode="F"
       radius="0"
       chamfer_steps="1"
       flexible="false"
       use_knot_distance="true"
       apply_no_radius="true"
       apply_with_radius="true"
       only_selected="false"
       hide_knots="false" />
    <inkscape:path-effect
       effect="fillet_chamfer"
       id="path-effect895"
       is_visible="true"
       lpeversion="1"
       nodesatellites_param="F,0,0,1,0,0,0,1 @ F,0,0,1,0,0,0,1 @ F,0,0,1,0,0,0,1 @ F,0,0,1,0,0,0,1 @ F,0,0,1,0,0,0,1 @ F,0,0,1,0,2,0,1 @ F,0,0,1,0,2,0,1 @ F,0,0,1,0,0,0,1 @ F,0,0,1,0,0,0,1"
       unit="px"
       method="auto"
       mode="F"
       radius="0"
       chamfer_steps="1"
       flexible="false"
       use_knot_distance="true"
       apply_no_radius="true"
       apply_with_radius="true"
       only_selected="false"
       hide_knots="false" />
    <inkscape:path-effect
       effect="fillet_chamfer"
       id="path-effect38645"
       is_visible="true"
       lpeversion="1"
       nodesatellites_param="IF,0,0,1,0,2,0,1 @ IF,0,0,1,0,0,0,1 @ IF,0,0,1,0,0,0,1 @ IF,0,0,1,0,0,0,1"
       unit="px"
       method="auto"
       mode="F"
       radius="1"
       chamfer_steps="1"
       flexible="false"
       use_knot_distance="true"
       apply_no_radius="true"
       apply_with_radius="true"
       only_selected="false"
       hide_knots="false" />
    <inkscape:path-effect
       effect="fillet_chamfer"
       id="path-effect38639"
       is_visible="true"
       lpeversion="1"
       nodesatellites_param="IF,0,0,1,0,0,0,1 @ IF,0,0,1,0,0,0,1 @ IF,0,0,1,0,2,0,1 @ IF,0,0,1,0,2,0,1"
       unit="px"
       method="auto"
       mode="F"
       radius="2"
       chamfer_steps="1"
       flexible="false"
       use_knot_distance="true"
       apply_no_radius="true"
       apply_with_radius="true"
       only_selected="false"
       hide_knots="false" />
    <inkscape:path-effect
       effect="fillet_chamfer"
       id="path-effect38633"
       is_visible="true"
       lpeversion="1"
       nodesatellites_param="IF,0,0,1,0,0,0,1 @ IF,0,0,1,0,0,0,1 @ IF,0,0,1,0,2,0,1 @ IF,0,0,1,0,2,0,1"
       unit="px"
       method="auto"
       mode="F"
       radius="2"
       chamfer_steps="1"
       flexible="false"
       use_knot_distance="true"
       apply_no_radius="true"
       apply_with_radius="true"
       only_selected="false"
       hide_knots="false" />
    <inkscape:path-effect
       effect="fillet_chamfer"
       id="path-effect38627"
       is_visible="true"
       lpeversion="1"
       nodesatellites_param="F,0,0,1,0,0,0,1 @ F,0,0,1,0,0,0,1 @ F,0,0,1,0,0,0,1 @ F,0,0,1,0,0,0,1 @ F,0,0,1,0,0,0,1"
       unit="px"
       method="auto"
       mode="F"
       radius="1"
       chamfer_steps="1"
       flexible="false"
       use_knot_distance="true"
       apply_no_radius="true"
       apply_with_radius="true"
       only_selected="false"
       hide_knots="false" />
    <inkscape:path-effect
       effect="fillet_chamfer"
       id="path-effect38625"
       is_visible="true"
       lpeversion="1"
       nodesatellites_param="F,0,0,1,0,0,0,1 @ F,0,0,1,0,0,0,1 @ F,0,0,1,0,0,0,1 @ F,0,0,1,0,4,0,1"
       unit="px"
       method="auto"
       mode="F"
       radius="2"
       chamfer_steps="1"
       flexible="false"
       use_knot_distance="true"
       apply_no_radius="true"
       apply_with_radius="true"
       only_selected="false"
       hide_knots="false" />
    <inkscape:path-effect
       effect="fillet_chamfer"
       id="path-effect38623"
       is_visible="true"
       lpeversion="1"
       nodesatellites_param="F,0,0,1,0,0,0,1 @ F,0,0,1,0,0,0,1 @ F,0,0,1,0,2,0,1 @ F,0,0,1,0,2,0,1"
       unit="px"
       method="auto"
       mode="F"
       radius="2"
       chamfer_steps="1"
       flexible="false"
       use_knot_distance="true"
       apply_no_radius="true"
       apply_with_radius="true"
       only_selected="false"
       hide_knots="false" />
    <inkscape:path-effect
       effect="fillet_chamfer"
       id="path-effect38553"
       is_visible="true"
       lpeversion="1"
       nodesatellites_param="F,0,0,1,0,13,0,1 @ F,0,0,1,0,13,0,1 @ F,0,0,1,0,13,0,1 @ F,0,0,1,0,13,0,1"
       unit="px"
       method="auto"
       mode="F"
       radius="13"
       chamfer_steps="1"
       flexible="false"
       use_knot_distance="true"
       apply_no_radius="true"
       apply_with_radius="true"
       only_selected="false"
       hide_knots="false" />
    <inkscape:path-effect
       effect="fillet_chamfer"
       id="path-effect38551"
       is_visible="true"
       lpeversion="1"
       nodesatellites_param="F,0,0,1,0,0,0,1 @ F,0,0,1,0,0,0,1 @ F,0,0,1,0,2,0,1 @ F,0,0,1,0,2,0,1"
       unit="px"
       method="auto"
       mode="F"
       radius="2"
       chamfer_steps="1"
       flexible="false"
       use_knot_distance="true"
       apply_no_radius="true"
       apply_with_radius="true"
       only_selected="false"
       hide_knots="false" />
    <inkscape:path-effect
       effect="fillet_chamfer"
       id="path-effect38549"
       is_visible="true"
       lpeversion="1"
       nodesatellites_param="F,0,0,1,0,2,0,1 @ F,0,0,1,0,2,0,1 @ F,0,0,1,0,2,0,1 @ F,0,0,1,0,2,0,1"
       unit="px"
       method="auto"
       mode="F"
       radius="2"
       chamfer_steps="1"
       flexible="false"
       use_knot_distance="true"
       apply_no_radius="true"
       apply_with_radius="true"
       only_selected="false"
       hide_knots="false" />
    <inkscape:path-effect
       effect="fillet_chamfer"
       id="path-effect38547"
       is_visible="true"
       lpeversion="1"
       nodesatellites_param="F,0,0,1,0,0,0,1 @ F,0,0,1,0,0,0,1 @ F,0,0,1,0,0,0,1 @ F,0,0,1,0,2,0,1"
       unit="px"
       method="auto"
       mode="F"
       radius="2"
       chamfer_steps="1"
       flexible="false"
       use_knot_distance="true"
       apply_no_radius="true"
       apply_with_radius="true"
       only_selected="false"
       hide_knots="false" />
    <inkscape:path-effect
       effect="fillet_chamfer"
       id="path-effect38545"
       is_visible="true"
       lpeversion="1"
       nodesatellites_param="F,0,0,1,0,0,0,1 @ F,0,0,1,0,0,0,1 @ F,0,0,1,0,0,0,1 @ F,0,0,1,0,4,0,1"
       unit="px"
       method="auto"
       mode="F"
       radius="2"
       chamfer_steps="1"
       flexible="false"
       use_knot_distance="true"
       apply_no_radius="true"
       apply_with_radius="true"
       only_selected="false"
       hide_knots="false" />
    <inkscape:path-effect
       effect="fillet_chamfer"
       id="path-effect38543"
       is_visible="true"
       lpeversion="1"
       nodesatellites_param="F,0,0,1,0,0,0,1 @ F,0,0,1,0,0,0,1 @ F,0,0,1,0,2,0,1 @ F,0,0,1,0,2,0,1"
       unit="px"
       method="auto"
       mode="F"
       radius="2"
       chamfer_steps="1"
       flexible="false"
       use_knot_distance="true"
       apply_no_radius="true"
       apply_with_radius="true"
       only_selected="false"
       hide_knots="false" />
    <inkscape:path-effect
       effect="fillet_chamfer"
       id="path-effect38541"
       is_visible="true"
       lpeversion="1"
       nodesatellites_param="F,0,0,1,0,2,0,1 @ F,0,0,1,0,2,0,1 @ F,0,0,1,0,2,0,1 @ F,0,0,1,0,2,0,1"
       unit="px"
       method="auto"
       mode="F"
       radius="2"
       chamfer_steps="1"
       flexible="false"
       use_knot_distance="true"
       apply_no_radius="true"
       apply_with_radius="true"
       only_selected="false"
       hide_knots="false" />
    <linearGradient
       inkscape:collect="always"
       id="linearGradient25973">
      <stop
         style="stop-color:#70f4f6;stop-opacity:1;"
         offset="0"
         id="stop25969" />
      <stop
         style="stop-color:#72f4af;stop-opacity:1;"
         offset="1"
         id="stop25971" />
    </linearGradient>
    <linearGradient
       inkscape:collect="always"
       id="linearGradient15151">
      <stop
         style="stop-color:#72dcff;stop-opacity:1;"
         offset="0"
         id="stop15147" />
      <stop
         style="stop-color:#4db4fa;stop-opacity:1;"
         offset="0.40000001"
         id="stop16609" />
      <stop
         style="stop-color:#4bb3f9;stop-opacity:1;"
         offset="0.60478979"
         id="stop18063" />
      <stop
         style="stop-color:#0781eb;stop-opacity:1;"
         offset="1"
         id="stop15149" />
    </linearGradient>
    <inkscape:path-effect
       effect="fillet_chamfer"
       id="path-effect15122"
       is_visible="true"
       lpeversion="1"
       nodesatellites_param="F,0,0,1,0,16,0,1 @ F,0,0,1,0,16,0,1 @ F,0,0,1,0,16,0,1 @ F,0,0,1,0,16,0,1"
       unit="px"
       method="auto"
       mode="F"
       radius="16"
       chamfer_steps="1"
       flexible="false"
       use_knot_distance="true"
       apply_no_radius="true"
       apply_with_radius="true"
       only_selected="false"
       hide_knots="false" />
    <linearGradient
       inkscape:collect="always"
       xlink:href="#linearGradient15151"
       id="linearGradient15153"
       x1="0"
       y1="60"
       x2="120"
       y2="60"
       gradientUnits="userSpaceOnUse"
       gradientTransform="matrix(1.0666667,0,0,1.0666667,0,-128)" />
    <linearGradient
       inkscape:collect="always"
       xlink:href="#linearGradient25973"
       id="linearGradient25975"
       x1="20.005466"
       y1="59.999817"
       x2="100"
       y2="59.999817"
       gradientUnits="userSpaceOnUse"
       gradientTransform="matrix(1.0350876,0,0,1.0350876,-28.097643,-145.98305)" />
  </defs>
  <g
     inkscape:label="Layer 1"
     inkscape:groupmode="layer"
     id="layer1">
    <path
       style="fill:url(#linearGradient15153);fill-opacity:1;stroke:none;stroke-width:3.75;stroke-dasharray:3.75, 3.75;stroke-dashoffset:0;stroke-opacity:1"
       id="rect9674"
       width="128"
       height="128"
       x="0"
       y="-128"
       inkscape:path-effect="#path-effect15122"
       d="m 16,-128 h 96 a 16,16 45 0 1 16,16 v 96 A 16,16 135 0 1 112,0 H 16 A 16,16 45 0 1 0,-16 v -96 a 16,16 135 0 1 16,-16 z"
       sodipodi:type="rect"
       transform="rotate(90)" />
    <ellipse
       style="fill:#ffffff;fill-opacity:1;stroke-width:0.66203"
       id="path111"
       cx="64"
       cy="52.266666"
       rx="10.666668"
       ry="10.666667" />
    <path
       style="fill:#ffffff;fill-opacity:1;stroke-width:0.655082"
       id="path221"
       sodipodi:type="arc"
       sodipodi:cx="-64"
       sodipodi:cy="-86.400002"
       sodipodi:rx="19.200001"
       sodipodi:ry="18.133333"
       sodipodi:start="0"
       sodipodi:end="3.1415927"
       sodipodi:arc-type="slice"
       d="M -44.799999,-86.400002 A 19.200001,18.133333 0 0 1 -54.4,-70.696074 a 19.200001,18.133333 0 0 1 -19.200001,-10e-7 19.200001,18.133333 0 0 1 -9.6,-15.703927 H -64 Z"
       transform="scale(-1)" />
    <path
       id="rect324"
       style="fill:#cffbe4;fill-opacity:1;stroke-width:0.858395"
       d="m 16.000001,24.400001 v 83.333339 c 4e-6,2.35641 1.910254,4.26666 4.266666,4.26666 H 120.53334 c 1.1782,0 2.13333,-0.95513 2.13333,-2.13333 0,-1.1782 -0.95513,-2.13333 -2.13333,-2.13333 H 22.400001 c -1.17821,0 -2.133338,-0.95513 -2.133334,-2.13334 V 24.400001 a 2,2 45 0 0 -2,-2 h -0.266666 a 2,2 135 0 0 -2,2 z"
       inkscape:path-effect="#path-effect946"
       inkscape:original-d="M 16.000001,22.400001 V 107.73334 A 4.2666668,4.2666668 0 0 0 20.266667,112 H 120.53334 a 2.1333334,2.1333334 0 0 0 2.13333,-2.13333 2.1333334,2.1333334 0 0 0 -2.13333,-2.13333 H 22.400001 A 2.1333334,2.1333334 0 0 1 20.266667,105.6 V 22.400001 Z" />
    <path
       id="rect324-6"
       style="fill:#d0fbfa;fill-opacity:1;stroke-width:0.858395"
       d="m 7.4666669,16.000001 c -1.1782073,0 -2.1333332,0.955126 -2.1333334,2.133333 2e-7,1.178207 0.9551261,2.133333 2.1333334,2.133333 H 105.6 c 1.17821,-4e-6 2.13334,0.955124 2.13334,2.133334 V 103.6 a 2,2 45 0 0 2,2 H 110 a 2,2 135 0 0 2,-2 V 20.266667 c 0,-2.356412 -1.91025,-4.266662 -4.26666,-4.266666 z"
       inkscape:path-effect="#path-effect895"
       inkscape:original-d="m 7.4666669,16.000001 a 2.1333334,2.1333334 0 0 0 -2.1333334,2.133333 2.1333334,2.1333334 0 0 0 2.1333334,2.133333 H 105.6 a 2.1333334,2.1333334 0 0 1 2.13334,2.133334 V 105.6 H 112 V 20.266667 a 4.2666668,4.2666668 0 0 0 -4.26666,-4.266666 z" />
    <path
       style="fill:#cffbe4;fill-opacity:1;stroke-width:0.24835"
       id="rect525"
       width="4.2666669"
       height="8.5333338"
       x="-112"
       y="-122.66667"
       transform="scale(-1)"
       inkscape:path-effect="#path-effect38549"
       d="m -110,-122.66667 h 0.26667 a 2,2 45 0 1 2,2 v 4.53333 a 2,2 135 0 1 -2,2 H -110 a 2,2 45 0 1 -2,-2 v -4.53333 a 2,2 135 0 1 2,-2 z"
       sodipodi:type="rect" />
    <path
       style="fill:#d0fbfa;fill-opacity:1;stroke-width:0.248349"
       id="rect527"
       width="4.2666669"
       height="8.5333338"
       x="16"
       y="5.3333335"
       inkscape:path-effect="#path-effect38541"
       d="m 18,5.3333335 h 0.266667 a 2,2 45 0 1 2,2 v 4.5333335 a 2,2 135 0 1 -2,2 H 18 a 2,2 45 0 1 -2,-2 V 7.3333335 a 2,2 135 0 1 2,-2 z"
       sodipodi:type="rect" />
    <circle
       style="fill:none;stroke:url(#linearGradient25975);stroke-width:4.00002;stroke-linecap:round;stroke-linejoin:miter;stroke-miterlimit:4;stroke-dasharray:4.00002, 7.20004;stroke-dashoffset:0;stroke-opacity:1;paint-order:normal"
       id="path8894"
       transform="rotate(112.93028)"
       cx="34.00761"
       cy="-83.877785"
       r="39.333332" />
    <g
       aria-label="Avatar Cropper"
       id="text327"
       style="font-size:85.3333px;opacity:1;fill:#eeeeee;stroke-width:72;stroke-linecap:round;stroke-dasharray:144, 144">
      <path
         d="M 209.26399,96.586639 203.29066,79.00798 h -24.06399 l -5.97334,17.578659 H 166 l 20.82133,-59.562641 h 9.13066 l 20.82133,59.562641 z M 191.42933,43.679995 h -0.42667 l -10.06933,29.013321 h 20.56533 z"
         style="font-family:'IBM Plex Sans';-inkscape-font-specification:'IBM Plex Sans'"
         id="path3606" />
      <path
         d="M 234.01067,96.586639 218.56534,52.554658 h 6.82667 l 7.67999,21.845324 4.77867,15.01866 h 0.42666 l 4.77867,-15.01866 7.85066,-21.845324 h 6.57067 l -15.53066,44.031981 z"
         style="font-family:'IBM Plex Sans';-inkscape-font-specification:'IBM Plex Sans'"
         id="path3608" />
      <path
         d="m 297.49862,96.586639 q -3.83999,0 -5.54666,-2.047999 -1.62133,-2.047999 -2.048,-5.119998 h -0.42667 q -1.45066,4.095999 -4.77866,6.143998 -3.328,2.047999 -7.936,2.047999 -6.99733,0 -10.92266,-3.583999 -3.84,-3.583998 -3.84,-9.727995 0,-6.229331 4.52267,-9.55733 4.608,-3.327998 14.25066,-3.327998 h 8.70399 v -4.351999 q 0,-4.693331 -2.55999,-7.167997 -2.56,-2.474665 -7.85067,-2.474665 -4.01066,0 -6.74133,1.791999 -2.64533,1.791999 -4.43733,4.778665 l -4.096,-3.839999 q 1.792,-3.583998 5.71733,-6.058664 3.92533,-2.559999 9.89867,-2.559999 8.02133,0 12.45866,3.925332 4.43733,3.925332 4.43733,10.922662 v 24.234657 h 5.03466 v 5.97333 z m -19.62665,-4.778664 q 2.56,0 4.69333,-0.597333 2.13333,-0.597333 3.66933,-1.706666 1.536,-1.109333 2.38933,-2.559999 0.85333,-1.450666 0.85333,-3.157332 v -7.253331 h -9.04532 q -5.888,0 -8.61867,1.706666 -2.64533,1.706666 -2.64533,4.949332 v 1.791999 q 0,3.242665 2.304,5.034664 2.38933,1.792 6.4,1.792 z"
         style="font-family:'IBM Plex Sans';-inkscape-font-specification:'IBM Plex Sans'"
         id="path3610" />
      <path
         d="m 320.79465,96.586639 q -3.584,0 -5.46133,-1.962665 -1.792,-2.048 -1.792,-5.290665 v -30.80532 h -7.25333 v -5.973331 h 4.096 q 2.21866,0 2.98666,-0.853333 0.85334,-0.938666 0.85334,-3.157332 v -8.191997 h 6.14399 v 12.202662 h 9.64267 v 5.973331 h -9.64267 v 32.08532 h 8.96 v 5.97333 z"
         style="font-family:'IBM Plex Sans';-inkscape-font-specification:'IBM Plex Sans'"
         id="path3612" />
      <path
         d="m 373.01862,96.586639 q -3.84,0 -5.54666,-2.047999 -1.62134,-2.047999 -2.048,-5.119998 h -0.42667 q -1.45066,4.095999 -4.77866,6.143998 -3.328,2.047999 -7.936,2.047999 -6.99733,0 -10.92266,-3.583999 -3.84,-3.583998 -3.84,-9.727995 0,-6.229331 4.52266,-9.55733 4.608,-3.327998 14.25067,-3.327998 h 8.70399 v -4.351999 q 0,-4.693331 -2.56,-7.167997 -2.56,-2.474665 -7.85066,-2.474665 -4.01067,0 -6.74133,1.791999 -2.64533,1.791999 -4.43733,4.778665 l -4.096,-3.839999 q 1.792,-3.583998 5.71733,-6.058664 3.92533,-2.559999 9.89866,-2.559999 8.02133,0 12.45866,3.925332 4.43734,3.925332 4.43734,10.922662 v 24.234657 h 5.03466 v 5.97333 z m -19.62666,-4.778664 q 2.56,0 4.69333,-0.597333 2.13334,-0.597333 3.66934,-1.706666 1.536,-1.109333 2.38933,-2.559999 0.85333,-1.450666 0.85333,-3.157332 v -7.253331 h -9.04533 q -5.888,0 -8.61866,1.706666 -2.64533,1.706666 -2.64533,4.949332 v 1.791999 q 0,3.242665 2.304,5.034664 2.38933,1.792 6.39999,1.792 z"
         style="font-family:'IBM Plex Sans';-inkscape-font-specification:'IBM Plex Sans'"
         id="path3614" />
      <path
         d="M 386.58664,96.586639 V 52.554658 h 6.82667 v 8.106663 h 0.42666 q 1.19467,-3.157332 4.26667,-5.631998 3.072,-2.474665 8.44799,-2.474665 h 2.64534 v 6.826664 h -4.01067 q -5.54666,0 -8.70399,2.133332 -3.072,2.047999 -3.072,5.205331 v 29.866654 z"
         style="font-family:'IBM Plex Sans';-inkscape-font-specification:'IBM Plex Sans'"
         id="path3616" />
      <path
         d="m 459.71734,97.610639 q -11.34933,0 -17.66399,-7.679997 -6.31467,-7.76533 -6.31467,-22.78399 0,-15.018661 6.31467,-23.039991 6.31466,-8.106663 17.66399,-8.106663 7.50933,0 12.544,3.413332 5.11999,3.413332 7.93599,9.642663 l -5.80266,3.498665 q -1.792,-4.607998 -5.46133,-7.338664 -3.66934,-2.815999 -9.216,-2.815999 -3.84,0 -6.912,1.450666 -2.98666,1.450666 -5.11999,4.181332 -2.048,2.645332 -3.15734,6.399997 -1.10933,3.669332 -1.10933,8.27733 v 8.874663 q 0,9.215996 4.26667,14.421327 4.26666,5.205332 12.03199,5.205332 5.71733,0 9.55733,-2.901332 3.84,-2.986666 5.632,-7.850664 l 5.71733,3.583999 q -2.816,6.314664 -8.10666,9.983995 -5.29067,3.583999 -12.8,3.583999 z"
         style="font-family:'IBM Plex Sans';-inkscape-font-specification:'IBM Plex Sans'"
         id="path3618" />
      <path
         d="M 491.03469,96.586639 V 52.554658 h 6.82666 v 8.106663 h 0.42667 q 1.19466,-3.157332 4.26666,-5.631998 3.072,-2.474665 8.448,-2.474665 h 2.64533 v 6.826664 h -4.01066 q -5.54667,0 -8.704,2.133332 -3.072,2.047999 -3.072,5.205331 v 29.866654 z"
         style="font-family:'IBM Plex Sans';-inkscape-font-specification:'IBM Plex Sans'"
         id="path3620" />
      <path
         d="m 538.56546,97.610639 q -4.43733,0 -8.10667,-1.621333 -3.66933,-1.621332 -6.31466,-4.607998 -2.56,-3.071998 -4.01066,-7.25333 -1.45067,-4.266665 -1.45067,-9.557329 0,-5.205332 1.45067,-9.471996 1.45066,-4.266665 4.01066,-7.253331 2.64533,-3.071998 6.31466,-4.693331 3.66934,-1.621333 8.10667,-1.621333 4.43733,0 8.02133,1.621333 3.66933,1.621333 6.31466,4.693331 2.64533,2.986666 4.096,7.253331 1.45067,4.266664 1.45067,9.471996 0,5.290664 -1.45067,9.557329 -1.45067,4.181332 -4.096,7.25333 -2.64533,2.986666 -6.31466,4.607998 -3.584,1.621333 -8.02133,1.621333 z m 0,-6.058664 q 5.54666,0 9.04533,-3.413332 3.49866,-3.413332 3.49866,-10.410662 v -6.314664 q 0,-6.997331 -3.49866,-10.410663 -3.49867,-3.413332 -9.04533,-3.413332 -5.54667,0 -9.04533,3.413332 -3.49867,3.413332 -3.49867,10.410663 v 6.314664 q 0,6.99733 3.49867,10.410662 3.49866,3.413332 9.04533,3.413332 z"
         style="font-family:'IBM Plex Sans';-inkscape-font-specification:'IBM Plex Sans'"
         id="path3622" />
      <path
         d="m 569.71206,52.554658 h 6.82666 v 7.167997 h 0.34133 q 1.70667,-4.181332 4.94933,-6.143998 3.328,-2.047999 7.936,-2.047999 4.096,0 7.424,1.621333 3.328,1.621333 5.63199,4.607998 2.38934,2.986665 3.584,7.25333 1.28,4.266665 1.28,9.55733 0,5.290664 -1.28,9.557329 -1.19466,4.266665 -3.584,7.25333 -2.30399,2.986666 -5.63199,4.607998 -3.328,1.621333 -7.424,1.621333 -8.96,0 -12.88533,-8.191997 h -0.34133 V 113.6533 h -6.82666 z m 18.17599,38.911984 q 5.80266,0 9.13066,-3.583999 3.328,-3.669332 3.328,-9.557329 v -7.509331 q 0,-5.887997 -3.328,-9.471996 -3.328,-3.669331 -9.13066,-3.669331 -2.304,0 -4.43733,0.682666 -2.048,0.597333 -3.584,1.706666 -1.536,1.109333 -2.47467,2.730666 -0.85333,1.535999 -0.85333,3.327998 v 16.383993 q 0,2.133333 0.85333,3.839999 0.93867,1.621332 2.47467,2.815999 1.536,1.109332 3.584,1.706665 2.13333,0.597334 4.43733,0.597334 z"
         style="font-family:'IBM Plex Sans';-inkscape-font-specification:'IBM Plex Sans'"
         id="path3624" />
      <path
         d="m 619.20537,52.554658 h 6.82667 v 7.167997 h 0.34133 q 1.70666,-4.181332 4.94933,-6.143998 3.328,-2.047999 7.936,-2.047999 4.096,0 7.42399,1.621333 3.328,1.621333 5.632,4.607998 2.38933,2.986665 3.584,7.25333 1.28,4.266665 1.28,9.55733 0,5.290664 -1.28,9.557329 -1.19467,4.266665 -3.584,7.25333 -2.304,2.986666 -5.632,4.607998 -3.32799,1.621333 -7.42399,1.621333 -8.96,0 -12.88533,-8.191997 h -0.34133 V 113.6533 h -6.82667 z m 18.17599,38.911984 q 5.80267,0 9.13067,-3.583999 3.328,-3.669332 3.328,-9.557329 v -7.509331 q 0,-5.887997 -3.328,-9.471996 -3.328,-3.669331 -9.13067,-3.669331 -2.30399,0 -4.43733,0.682666 -2.048,0.597333 -3.584,1.706666 -1.53599,1.109333 -2.47466,2.730666 -0.85333,1.535999 -0.85333,3.327998 v 16.383993 q 0,2.133333 0.85333,3.839999 0.93867,1.621332 2.47466,2.815999 1.536,1.109332 3.584,1.706665 2.13334,0.597334 4.43733,0.597334 z"
         style="font-family:'IBM Plex Sans';-inkscape-font-specification:'IBM Plex Sans'"
         id="path3626" />
      <path
         d="m 685.25332,97.610639 q -4.52267,0 -8.192,-1.621333 -3.584,-1.621332 -6.22933,-4.607998 -2.56,-3.071998 -4.01066,-7.25333 -1.36534,-4.266665 -1.36534,-9.557329 0,-5.205332 1.36534,-9.471996 1.45066,-4.266665 4.01066,-7.253331 2.64533,-3.071998 6.22933,-4.693331 3.66933,-1.621333 8.192,-1.621333 4.43733,0 7.93599,1.621333 3.49867,1.621333 5.97334,4.522665 2.47466,2.815998 3.75466,6.74133 1.36533,3.925332 1.36533,8.618663 v 3.242666 h -31.65865 v 2.047999 q 0,2.815999 0.85333,5.290664 0.93867,2.389332 2.56,4.181332 1.70667,1.791999 4.096,2.815999 2.47467,1.023999 5.54666,1.023999 4.18134,0 7.25333,-1.962666 3.15734,-1.962666 4.864,-5.631997 l 4.864,3.498665 q -2.13333,4.522665 -6.656,7.338663 -4.52266,2.730666 -10.75199,2.730666 z m 0,-40.36265 q -2.816,0 -5.12,1.024 -2.304,0.938666 -4.01067,2.730665 -1.62133,1.792 -2.55999,4.266665 -0.93867,2.389332 -0.93867,5.290665 v 0.597333 h 24.31999 V 70.21865 q 0,-5.887997 -3.24267,-9.386662 -3.15733,-3.583999 -8.44799,-3.583999 z"
         style="font-family:'IBM Plex Sans';-inkscape-font-specification:'IBM Plex Sans'"
         id="path3628" />
      <path
         d="M 715.54665,96.586639 V 52.554658 h 6.82666 v 8.106663 h 0.42667 q 1.19467,-3.157332 4.26667,-5.631998 3.07199,-2.474665 8.44799,-2.474665 h 2.64533 v 6.826664 h -4.01066 q -5.54667,0 -8.704,2.133332 -3.072,2.047999 -3.072,5.205331 v 29.866654 z"
         style="font-family:'IBM Plex Sans';-inkscape-font-specification:'IBM Plex Sans'"
         id="path3630" />
    </g>
  </g>
  <metadata
     id="metadata8830">
    <rdf:RDF>
      <cc:Work
         rdf:about="">
        <cc:license
           rdf:resource="http://creativecommons.org/licenses/by-sa/4.0/" />
      </cc:Work>
      <cc:License
         rdf:about="http://creativecommons.org/licenses/by-sa/4.0/">
        <cc:permits
           rdf:resource="http://creativecommons.org/ns#Reproduction" />
        <cc:permits
           rdf:resource="http://creativecommons.org/ns#Distribution" />
        <cc:requires
           rdf:resource="http://creativecommons.org/ns#Notice" />
        <cc:requires
           rdf:resource="http://creativecommons.org/ns#Attribution" />
        <cc:permits
           rdf:resource="http://creativecommons.org/ns#DerivativeWorks" />
        <cc:requires
           rdf:resource="http://creativecommons.org/ns#ShareAlike" />
      </cc:License>
    </rdf:RDF>
  </metadata>
</svg>
