<?xml version="1.0" encoding="UTF-8" standalone="no"?>
<svg version="1.1"
   width="16"
   height="16"
   viewBox="0 0 16 16"
   xmlns="http://www.w3.org/2000/svg"
   xmlns:svg="http://www.w3.org/2000/svg"
   fill="#fff">
  <path d="M 12.046687,6.2472054 14.1033,4.1905919 c 0.621035,-0.6210342 0.621035,-1.6335901 0,-2.2546242 v 0 c -0.621033,-0.6210344 -1.633591,-0.6210344 -2.254624,0 L 9.7920615,3.992581 8.8605105,3.0610296 6.9929065,4.9286327 11.106134,9.0418609 12.973738,7.1742565 Z" />
  <path d="m 2.7742076,12.019057 5.6523121,-5.6523113 -0.7071067,1e-7 1.9576087,1.957608 -10e-8,-0.7071069 -5.6523129,5.6523131 c -0.3425371,0.342537 -0.9079639,0.342537 -1.250501,0 -0.3425373,-0.342538 -0.3425376,-0.907964 -10e-8,-1.250503 z M 4.7318156,13.976666 10.737682,7.9708002 8.0729662,5.3060856 2.0671004,11.311951 c -0.7375217,0.737523 -0.737522,1.927193 3e-7,2.664715 0.7375225,0.737523 1.9271925,0.737523 2.6647149,0 z" />
</svg>
